<svg width="48" height="48" viewBox="0 0 48 48" fill="none" xmlns="http://www.w3.org/2000/svg">
    <path d="M40.7999 16.7499V36.8499H12.3099C10.8999 38.4399 9.50988 40.0099 8.12988 41.5499H40.7999C42.1199 41.5499 43.2399 41.0899 44.1599 40.1799C45.0899 39.2599 45.5499 38.1599 45.5499 36.8499V11.7499C45.5499 10.6499 45.2099 9.69988 44.5699 8.87988C40.1999 11.1699 36.2199 13.8399 32.5299 16.7499H40.7999Z" fill="#B88AD6"/>
    <path d="M40.8 7H7.7C6.4 7 5.29 7.46 4.37 8.39C3.45 9.32 3 10.44 3 11.75V36.85C3 38.15 3.46 39.26 4.37 40.18C5.29 41.1 6.39 41.55 7.7 41.55H8.13C9.51 40.01 10.9 38.44 12.31 36.85H7.7V16.75H32.53C36.21 13.84 40.2 11.17 44.57 8.88C44.44 8.71 44.32 8.55 44.17 8.39C43.24 7.46 42.12 7 40.81 7H40.8Z" fill="#CCACE2"/>
    <path d="M30.1899 34.1602C28.6499 34.1602 27.1199 33.7802 25.5999 33.0302C24.0799 32.2802 22.7199 31.3002 21.4999 30.0902C20.2899 28.8802 19.2999 27.5202 18.5499 25.9902C17.7999 24.4702 17.4199 22.9402 17.4199 21.4102C17.4199 21.0602 17.5399 20.7602 17.7799 20.5202C18.0199 20.2802 18.3199 20.1602 18.6699 20.1602H21.2199C21.5999 20.1602 21.8999 20.2602 22.1399 20.4502C22.3799 20.6402 22.5399 20.9302 22.6199 21.3102L23.1099 23.3102C23.1699 23.6402 23.1599 23.9202 23.0899 24.1602C23.0199 24.4002 22.8799 24.6002 22.6899 24.7702L20.7799 26.5002C21.3899 27.4602 22.0499 28.2902 22.7599 28.9902C23.4699 29.6902 24.2599 30.2802 25.1399 30.7702L26.9599 28.9302C27.1799 28.7102 27.4099 28.5602 27.6599 28.4802C27.9099 28.4002 28.1899 28.4002 28.4899 28.4802L30.2799 28.9202C30.6599 29.0202 30.9399 29.1902 31.1499 29.4302C31.3499 29.6702 31.4499 29.9802 31.4499 30.3602V32.9102C31.4499 33.2702 31.3299 33.5802 31.0899 33.8202C30.8499 34.0602 30.5499 34.1802 30.1999 34.1802L30.1899 34.1602Z" fill="#9A59C5"/>
</svg>
